<svg width="151" height="52" viewBox="0 0 151 52" fill="none" xmlns="http://www.w3.org/2000/svg">
<rect width="151" height="52" rx="5" fill="#2DC071"/>
<path d="M45.5726 31H41.2886V21.214H45.0966C45.7592 21.214 46.3286 21.2933 46.8046 21.452C47.2899 21.6107 47.6539 21.8253 47.8966 22.096C48.3352 22.6 48.5546 23.1693 48.5546 23.804C48.5546 24.5693 48.3072 25.1387 47.8126 25.512C47.6446 25.6427 47.5279 25.7267 47.4626 25.764C47.3972 25.792 47.2806 25.8433 47.1126 25.918C47.7192 26.0487 48.1999 26.324 48.5546 26.744C48.9186 27.1547 49.1006 27.668 49.1006 28.284C49.1006 28.9653 48.8672 29.5673 48.4006 30.09C47.8592 30.6967 46.9166 31 45.5726 31ZM43.4726 25.176H44.5086C45.1152 25.176 45.5632 25.1107 45.8526 24.98C46.1512 24.8493 46.3006 24.5693 46.3006 24.14C46.3006 23.7013 46.1652 23.412 45.8946 23.272C45.6239 23.132 45.1666 23.062 44.5226 23.062H43.4726V25.176ZM43.4726 29.152H44.9706C45.5959 29.152 46.0626 29.0773 46.3706 28.928C46.6879 28.7693 46.8466 28.466 46.8466 28.018C46.8466 27.5607 46.6786 27.262 46.3426 27.122C46.0159 26.9727 45.4886 26.898 44.7606 26.898H43.4726V29.152ZM53.7309 28.48C54.0949 28.928 54.5849 29.152 55.2009 29.152C55.8169 29.152 56.3022 28.928 56.6569 28.48C57.0209 28.0227 57.2029 27.402 57.2029 26.618V21.214H59.3869V26.688C59.3869 28.1067 58.9949 29.1987 58.2109 29.964C57.4269 30.72 56.4236 31.098 55.2009 31.098C53.9782 31.098 52.9702 30.7153 52.1769 29.95C51.3929 29.1847 51.0009 28.0973 51.0009 26.688V21.214H53.1849V26.618C53.1849 27.402 53.3669 28.0227 53.7309 28.48ZM66.0686 31H63.8846V27.136L60.4966 21.214H62.8626L64.9766 24.854L67.0906 21.214H69.4566L66.0686 27.136V31ZM81.4463 21.214H83.6303V31H81.4463L76.7843 24.868V31H74.6003V21.214H76.6443L81.4463 27.514V21.214ZM93.7337 26.058C93.7337 25.1807 93.4537 24.434 92.8937 23.818C92.3337 23.202 91.643 22.894 90.8217 22.894C90.0097 22.894 89.3237 23.202 88.7637 23.818C88.2037 24.434 87.9237 25.1807 87.9237 26.058C87.9237 26.926 88.2037 27.668 88.7637 28.284C89.3237 28.8907 90.0097 29.194 90.8217 29.194C91.643 29.194 92.3337 28.8907 92.8937 28.284C93.4537 27.668 93.7337 26.926 93.7337 26.058ZM94.4757 29.656C93.4863 30.6173 92.2683 31.098 90.8217 31.098C89.375 31.098 88.157 30.6173 87.1677 29.656C86.1783 28.6853 85.6837 27.4813 85.6837 26.044C85.6837 24.6067 86.1783 23.4073 87.1677 22.446C88.157 21.4753 89.375 20.99 90.8217 20.99C92.2683 20.99 93.4863 21.4753 94.4757 22.446C95.465 23.4073 95.9597 24.6067 95.9597 26.044C95.9597 27.4813 95.465 28.6853 94.4757 29.656ZM100.912 26.842L102.648 21.214H104.93L106.652 26.842L108.598 21.214H110.964L107.548 31H105.924L103.782 24.196L101.654 31H100.03L96.6137 21.214H98.9797L100.912 26.842Z" fill="white"/>
</svg>
