<svg width="171" height="52" viewBox="0 0 171 52" fill="none" xmlns="http://www.w3.org/2000/svg">
<rect x="0.5" y="0.5" width="170" height="51" rx="4.5" stroke="#2DC071"/>
<path d="M49.6066 24.462C49.6066 26.03 48.986 27.0427 47.7446 27.5L50.2226 31H47.5346L45.3646 27.878H43.8526V31H41.6686V21.214H45.3786C46.9 21.214 47.9826 21.4707 48.6266 21.984C49.28 22.4973 49.6066 23.3233 49.6066 24.462ZM45.4486 25.988C46.1953 25.988 46.704 25.8667 46.9746 25.624C47.2453 25.3813 47.3806 24.9987 47.3806 24.476C47.3806 23.944 47.2406 23.58 46.9606 23.384C46.6806 23.188 46.1906 23.09 45.4906 23.09H43.8526V25.988H45.4486ZM59.0965 21.214V23.16H54.2245V25.176H58.6065V27.038H54.2245V29.068H59.2505V31H52.0405V21.214H59.0965ZM68.3727 31L67.4627 28.886H63.3607L62.4507 31H60.1267L64.3547 21.214H66.4687L70.6967 31H68.3727ZM65.4187 24.126L64.1867 26.968H66.6367L65.4187 24.126ZM75.4903 21.214C77.2357 21.214 78.575 21.6433 79.5083 22.502C80.4417 23.3513 80.9083 24.5367 80.9083 26.058C80.9083 27.5793 80.451 28.7833 79.5363 29.67C78.631 30.5567 77.245 31 75.3783 31H72.0323V21.214H75.4903ZM75.6023 29.068C76.601 29.068 77.3663 28.816 77.8983 28.312C78.4397 27.808 78.7103 27.0753 78.7103 26.114C78.7103 25.1527 78.4397 24.4153 77.8983 23.902C77.3663 23.3793 76.545 23.118 75.4343 23.118H74.2163V29.068H75.6023ZM95.6475 24.84L93.0015 30.188H91.6995L89.0675 24.84V31H86.8835V21.214H89.8375L92.3575 26.59L94.8915 21.214H97.8315V31H95.6475V24.84ZM107.931 26.058C107.931 25.1807 107.651 24.434 107.091 23.818C106.531 23.202 105.84 22.894 105.019 22.894C104.207 22.894 103.521 23.202 102.961 23.818C102.401 24.434 102.121 25.1807 102.121 26.058C102.121 26.926 102.401 27.668 102.961 28.284C103.521 28.8907 104.207 29.194 105.019 29.194C105.84 29.194 106.531 28.8907 107.091 28.284C107.651 27.668 107.931 26.926 107.931 26.058ZM108.673 29.656C107.684 30.6173 106.466 31.098 105.019 31.098C103.572 31.098 102.354 30.6173 101.365 29.656C100.376 28.6853 99.8809 27.4813 99.8809 26.044C99.8809 24.6067 100.376 23.4073 101.365 22.446C102.354 21.4753 103.572 20.99 105.019 20.99C106.466 20.99 107.684 21.4753 108.673 22.446C109.662 23.4073 110.157 24.6067 110.157 26.044C110.157 27.4813 109.662 28.6853 108.673 29.656ZM120.145 24.462C120.145 26.03 119.525 27.0427 118.283 27.5L120.761 31H118.073L115.903 27.878H114.391V31H112.207V21.214H115.917C117.439 21.214 118.521 21.4707 119.165 21.984C119.819 22.4973 120.145 23.3233 120.145 24.462ZM115.987 25.988C116.734 25.988 117.243 25.8667 117.513 25.624C117.784 25.3813 117.919 24.9987 117.919 24.476C117.919 23.944 117.779 23.58 117.499 23.384C117.219 23.188 116.729 23.09 116.029 23.09H114.391V25.988H115.987ZM129.635 21.214V23.16H124.763V25.176H129.145V27.038H124.763V29.068H129.789V31H122.579V21.214H129.635Z" fill="#2DC071"/>
</svg>
